<?xml version="1.0" standalone="no"?>
<!DOCTYPE svg PUBLIC "-//W3C//DTD SVG 20010904//EN"
 "http://www.w3.org/TR/2001/REC-SVG-20010904/DTD/svg10.dtd">
<svg version="1.0" xmlns="http://www.w3.org/2000/svg"
 width="603.000000pt" height="185.000000pt" viewBox="0 0 603.000000 185.000000"
 preserveAspectRatio="xMidYMid meet">

<g transform="translate(0.000000,185.000000) scale(0.100000,-0.100000)"
fill="#000000" stroke="none">
<path d="M2210 1300 l0 -100 -45 0 -45 0 0 -60 0 -60 45 0 45 0 0 -232 c0
-206 3 -238 19 -274 24 -52 78 -94 131 -101 l40 -6 0 54 c-1 50 -3 56 -33 74
l-32 20 -3 233 -2 232 45 0 45 0 0 60 0 60 -45 0 -45 0 0 100 0 100 -60 0 -60
0 0 -100z"/>
<path d="M3680 1340 l0 -59 88 -3 87 -3 3 -407 2 -408 60 0 60 0 0 410 0 410
75 0 75 0 0 60 0 60 -225 0 -225 0 0 -60z"/>
<path d="M4450 1385 c0 -3 36 -131 80 -285 l80 -279 0 -181 0 -180 60 0 60 0
0 188 0 187 78 255 c44 140 82 265 86 278 7 21 5 22 -56 22 l-64 0 -43 -142
c-67 -220 -56 -217 -111 -28 l-47 165 -61 3 c-34 2 -62 0 -62 -3z"/>
<path d="M1577 1353 c-4 -3 -7 -30 -7 -60 l0 -53 60 0 60 0 0 60 0 60 -53 0
c-30 0 -57 -3 -60 -7z"/>
<path d="M561 1209 c-161 -47 -252 -231 -196 -399 50 -152 241 -240 392 -182
l53 20 52 -20 c41 -16 69 -19 123 -16 318 21 398 441 110 579 -73 35 -158 39
-234 10 -48 -18 -51 -18 -103 0 -57 20 -143 23 -197 8z m203 -27 l28 -12 -39
-38 c-62 -60 -86 -122 -86 -217 0 -97 17 -138 80 -206 l45 -49 -28 -11 c-16
-7 -61 -14 -101 -17 -61 -3 -80 0 -125 21 -57 25 -120 82 -145 130 -23 45 -32
126 -21 187 15 89 75 165 163 207 42 20 62 23 125 20 41 -2 88 -9 104 -15z
m321 -6 c224 -104 224 -418 1 -522 -61 -29 -163 -32 -221 -9 l-37 16 42 45
c61 66 84 124 84 209 -1 85 -25 144 -84 209 l-42 45 34 15 c54 24 164 20 223
-8z m-242 -46 c21 -17 93 -120 84 -120 -1 0 -34 32 -72 70 -41 41 -63 70 -54
70 9 0 28 -9 42 -20z m97 -200 l0 -35 -100 100 c-94 94 -99 100 -83 117 16 18
20 15 100 -64 72 -72 83 -87 83 -118z m-107 42 c83 -83 98 -103 95 -126 -3
-25 -10 -20 -111 82 -79 80 -106 113 -101 125 3 9 9 17 13 17 3 0 51 -44 104
-98z m-29 -68 c55 -59 102 -109 103 -113 2 -3 -2 -13 -7 -21 -8 -12 -30 5
-113 88 -86 86 -103 108 -99 128 2 13 7 24 10 24 2 0 50 -48 106 -106z m59
-186 c-16 -18 -20 -15 -100 64 -72 72 -83 87 -83 118 l0 35 100 -100 c94 -94
99 -100 83 -117z m-43 -36 c-17 -6 -58 26 -90 70 -49 67 -34 67 35 -2 36 -36
61 -66 55 -68z"/>
<path d="M1770 840 l0 -380 60 0 60 0 2 307 c3 295 4 308 22 311 43 9 46 -15
46 -325 l0 -293 55 0 55 0 0 318 c0 297 -1 319 -20 346 -25 39 -87 76 -127 76
-18 0 -33 5 -33 10 0 6 -27 10 -60 10 l-60 0 0 -380z"/>
<path d="M3300 840 l0 -380 60 0 60 0 2 301 c3 269 5 303 20 312 12 8 21 7 32
-2 14 -12 16 -52 16 -312 l0 -299 60 0 60 0 0 314 c0 308 0 314 -22 346 -33
48 -70 72 -122 77 -25 3 -46 10 -46 14 0 5 -27 9 -60 9 l-60 0 0 -380z"/>
<path d="M1580 1193 c0 -5 -1 -169 -3 -365 l-4 -358 59 0 58 0 0 365 0 365
-55 0 c-30 0 -55 -3 -55 -7z"/>
<path d="M2559 1177 c-18 -12 -44 -38 -57 -57 -23 -34 -23 -37 -20 -291 3
-284 3 -282 72 -333 39 -30 143 -30 183 0 53 39 73 81 73 150 l0 64 -55 0 -55
0 0 -45 c0 -73 -48 -107 -90 -65 -18 18 -20 33 -20 145 l0 125 88 0 c139 0
132 -5 132 112 0 72 -5 110 -16 134 -37 77 -163 110 -235 61z m129 -109 c7 -7
12 -27 12 -45 l0 -33 -55 0 c-52 0 -55 1 -55 26 0 43 17 64 53 64 18 0 38 -5
45 -12z"/>
<path d="M2890 830 l0 -370 55 0 55 0 1 233 c1 127 4 259 8 292 l6 60 45 0 45
0 3 -47 3 -48 61 0 60 0 -4 60 c-7 98 -60 151 -158 158 -42 3 -60 8 -60 18 0
10 -16 14 -60 14 l-60 0 0 -370z"/>
<path d="M4122 1179 c-27 -14 -51 -36 -67 -64 -25 -41 -25 -45 -25 -280 0
-270 6 -297 75 -344 51 -34 139 -34 190 0 69 47 75 75 75 339 0 213 -2 237
-20 274 -41 84 -144 118 -228 75z m114 -113 c17 -13 19 -30 22 -197 4 -224 -1
-266 -34 -281 -18 -8 -31 -8 -49 0 l-25 12 0 229 c0 209 2 231 18 240 24 14
45 13 68 -3z"/>
<path d="M5072 1179 c-23 -12 -52 -35 -65 -53 -21 -30 -22 -40 -25 -283 -3
-236 -2 -254 17 -291 62 -123 252 -113 307 15 11 24 14 89 14 263 0 251 -4
273 -56 322 -56 52 -122 61 -192 27z m112 -115 c14 -13 16 -49 16 -240 l0
-224 -25 -12 c-19 -8 -31 -8 -50 0 l-25 12 0 229 c0 209 2 231 18 240 25 15
48 13 66 -5z"/>
<path d="M5392 888 c3 -265 5 -307 20 -335 24 -43 68 -72 122 -79 25 -4 46
-11 46 -15 0 -5 27 -9 60 -9 l60 0 0 370 0 370 -60 0 -60 0 0 -289 c0 -251 -2
-290 -16 -302 -11 -9 -20 -10 -32 -2 -15 9 -17 42 -20 302 l-2 291 -61 0 -60
0 3 -302z"/>
</g>
</svg>
